HIERARCHY
ROOT hip
{
  OFFSET 0 0 0
  CHANNELS 6 Xposition Yposition Zposition Zrotation Yrotation Xrotation
  JOINT abdomen
  {
    OFFSET 0 20.6881 -0.73152
    CHANNELS 3 Zrotation Xrotation Yrotation
    JOINT chest
    {
      OFFSET 0 11.7043 -0.48768
      CHANNELS 3 Zrotation Xrotation Yrotation
      JOINT neck
      {
        OFFSET 0 22.1894 -2.19456
        CHANNELS 3 Zrotation Xrotation Yrotation
        JOINT head
        {
          OFFSET -0.24384 7.07133 1.2192
          CHANNELS 3 Zrotation Xrotation Yrotation
          JOINT leftEye
          {
            OFFSET 4.14528 8.04674 8.04672
            CHANNELS 3 Zrotation Xrotation Yrotation
            End Site
            {
              OFFSET 1 0 0
            }
          }
          JOINT rightEye
          {
            OFFSET -3.6576 8.04674 8.04672
            CHANNELS 3 Zrotation Xrotation Yrotation
            End Site
            {
              OFFSET 1 0 0
            }
          }
        }
      }
      JOINT rCollar
      {
        OFFSET -2.68224 19.2634 -4.8768
        CHANNELS 3 Zrotation Xrotation Yrotation
        JOINT rShldr
        {
          OFFSET -8.77824 -1.95073 1.46304
          CHANNELS 3 Zrotation Xrotation Yrotation
          JOINT rForeArm
          {
            OFFSET -28.1742 -1.7115 0.48768
            CHANNELS 3 Zrotation Xrotation Yrotation
            JOINT rHand
            {
              OFFSET -22.5879 0.773209 7.07136
              CHANNELS 3 Zrotation Xrotation Yrotation
              JOINT rThumb1
              {
                OFFSET -1.2192 -0.487915 3.41376
                CHANNELS 3 Zrotation Xrotation Yrotation
                JOINT rThumb2
                {
                  OFFSET -3.37035 -0.52449 3.41376
                  CHANNELS 3 Zrotation Xrotation Yrotation
                  End Site
                  {
                    OFFSET -1.78271 -1.18214 1.43049
                  }
                }
              }
              JOINT rIndex1
              {
                OFFSET -7.75947 0.938293 5.60832
                CHANNELS 3 Zrotation Xrotation Yrotation
                JOINT rIndex2
                {
                  OFFSET -2.54057 -0.884171 1.56538
                  CHANNELS 3 Zrotation Xrotation Yrotation
                  End Site
                  {
                    OFFSET -1.62519 -0.234802 1.16502
                  }
                }
              }
              JOINT rMid1
              {
                OFFSET -8.24714 1.18213 3.41376
                CHANNELS 3 Zrotation Xrotation Yrotation
                JOINT rMid2
                {
                  OFFSET -3.10165 -0.590103 1.0647
                  CHANNELS 3 Zrotation Xrotation Yrotation
                  End Site
                  {
                    OFFSET -2.48547 -0.328903 0.83742
                  }
                }
              }
              JOINT rRing1
              {
                OFFSET -8.82822 0.546677 1.51678
                CHANNELS 3 Zrotation Xrotation Yrotation
                JOINT rRing2
                {
                  OFFSET -2.60934 -0.819778 -0.0198488
                  CHANNELS 3 Zrotation Xrotation Yrotation
                  End Site
                  {
                    OFFSET -2.33842 -0.294052 0.168128
                  }
                }
              }
              JOINT rPinky1
              {
                OFFSET -8.27202 -0.0477905 -0.4584
                CHANNELS 3 Zrotation Xrotation Yrotation
                JOINT rPinky2
                {
                  OFFSET -1.82734 -0.647385 -0.700984
                  CHANNELS 3 Zrotation Xrotation Yrotation
                  End Site
                  {
                    OFFSET -1.69225 -0.51767 -0.607171
                  }
                }
              }
            }
          }
        }
      }
      JOINT lCollar
      {
        OFFSET 2.68224 19.2634 -4.8768
        CHANNELS 3 Zrotation Xrotation Yrotation
        JOINT lShldr
        {
          OFFSET 8.77824 -1.95073 1.46304
          CHANNELS 3 Zrotation Xrotation Yrotation
          JOINT lForeArm
          {
            OFFSET 28.1742 -1.7115 0.48768
            CHANNELS 3 Zrotation Xrotation Yrotation
            JOINT lHand
            {
              OFFSET 22.5879 0.773209 7.07136
              CHANNELS 3 Zrotation Xrotation Yrotation
              JOINT lThumb1
              {
                OFFSET 1.2192 -0.487915 3.41376
                CHANNELS 3 Zrotation Xrotation Yrotation
                JOINT lThumb2
                {
                  OFFSET 3.37035 -0.52449 3.41376
                  CHANNELS 3 Zrotation Xrotation Yrotation
                  End Site
                  {
                    OFFSET 1.78271 -1.18214 1.43049
                  }
                }
              }
              JOINT lIndex1
              {
                OFFSET 7.75947 0.938293 5.60832
                CHANNELS 3 Zrotation Xrotation Yrotation
                JOINT lIndex2
                {
                  OFFSET 2.54057 -0.884171 1.56538
                  CHANNELS 3 Zrotation Xrotation Yrotation
                  End Site
                  {
                    OFFSET 1.62519 -0.234802 1.16502
                  }
                }
              }
              JOINT lMid1
              {
                OFFSET 8.24714 1.18213 3.41376
                CHANNELS 3 Zrotation Xrotation Yrotation
                JOINT lMid2
                {
                  OFFSET 3.10165 -0.590103 1.0647
                  CHANNELS 3 Zrotation Xrotation Yrotation
                  End Site
                  {
                    OFFSET 2.48547 -0.328903 0.83742
                  }
                }
              }
              JOINT lRing1
              {
                OFFSET 8.82822 0.546677 1.51678
                CHANNELS 3 Zrotation Xrotation Yrotation
                JOINT lRing2
                {
                  OFFSET 2.60934 -0.819778 -0.0198488
                  CHANNELS 3 Zrotation Xrotation Yrotation
                  End Site
                  {
                    OFFSET 2.33842 -0.294052 0.168128
                  }
                }
              }
              JOINT lPinky1
              {
                OFFSET 8.27202 -0.0477905 -0.4584
                CHANNELS 3 Zrotation Xrotation Yrotation
                JOINT lPinky2
                {
                  OFFSET 1.82734 -0.647385 -0.700984
                  CHANNELS 3 Zrotation Xrotation Yrotation
                  End Site
                  {
                    OFFSET 1.69225 -0.51767 -0.607171
                  }
                }
              }
            }
          }
        }
      }
    }
  }
  JOINT rButtock
  {
    OFFSET -8.77824 4.35084 1.2192
    CHANNELS 3 Zrotation Xrotation Yrotation
    JOINT rThigh
    {
      OFFSET 0 -1.70687 -2.19456
      CHANNELS 3 Zrotation Xrotation Yrotation
      JOINT rShin
      {
        OFFSET 0 -36.8199 0.73152
        CHANNELS 3 Zrotation Xrotation Yrotation
        JOINT rFoot
        {
          OFFSET 0.73152 -45.1104 -5.12064
          CHANNELS 3 Zrotation Xrotation Yrotation
          End Site
          {
            OFFSET -1.1221 -3.69964 12.103
          }
        }
      }
    }
  }
  JOINT lButtock
  {
    OFFSET 8.77824 4.35084 1.2192
    CHANNELS 3 Zrotation Xrotation Yrotation
    JOINT lThigh
    {
      OFFSET 0 -1.70687 -2.19456
      CHANNELS 3 Zrotation Xrotation Yrotation
      JOINT lShin
      {
        OFFSET 0 -36.8199 0.73152
        CHANNELS 3 Zrotation Xrotation Yrotation
        JOINT lFoot
        {
          OFFSET -0.73152 -45.1104 -5.12064
          CHANNELS 3 Zrotation Xrotation Yrotation
          End Site
          {
            OFFSET 1.1221 -3.69964 12.103
          }
        }
      }
    }
  }
}
MOTION
Frames:	9
Frame Time:	0.00833333
10.7028 81.9383 54.7004 178.246 4.633 -155.956 -5.07423 4.79717 -1.02573 1.71189 -0.322845 -0.220517 4.56819 -15.6977 0.026613 -2.48633 29.5623 2.18916 -0.0 0.0 0.0 -0.0 0.0 0.0 9.07213e-14 -1.7249e-13 -2.19345e-13 50.8353 40.6072 31.7535 -28.4334 -36.1749 77.2823 -0.732929 23.4514 3.50199 1.97831e-09 1.15617e-08 2.16406e-11 3.41072e-09 2.01892e-08 -2.90765e-12 1.97832e-09 1.15617e-08 2.16332e-11 7.73091 5.47488 0.417314 1.97831e-09 1.15617e-08 2.16321e-11 2.90554 0.965183 0.102902 1.97831e-09 1.15617e-08 2.16354e-11 10.2786 0.731801 0.0259123 1.97831e-09 1.15617e-08 2.16439e-11 2.22167 -0.733487 -0.20892 9.08734e-14 -1.72499e-13 -2.19575e-13 -51.6524 37.0211 -33.9208 27.7852 -29.4747 -66.4871 0.835991 25.0617 -3.76742 -2.43407e-09 7.43858e-09 5.01112e-10 -4.18681e-09 1.30711e-08 9.15947e-10 -2.43407e-09 7.43859e-09 5.0113e-10 -7.73091 5.47488 -0.417314 -2.43406e-09 7.43858e-09 5.01112e-10 -2.90554 0.965183 -0.102902 -2.43407e-09 7.43859e-09 5.01116e-10 -10.2786 0.731801 -0.0259123 -2.43406e-09 7.43859e-09 5.01106e-10 -2.22167 -0.733487 0.20892 -2.03217e-16 0.0 -3.88251e-19 2.15464 -28.0846 3.14362 -0.51557 46.7423 0.693652 0.895128 14.8065 -7.82301 2.03217e-16 0.0 3.88251e-19 -3.7234 -24.8549 -0.840579 0.491618 44.8612 -0.63073 -0.628347 23.6886 3.24298
10.652 83.7582 52.32 177.799 4.2653 -156.562 -5.28524 3.2382 -1.36226 1.70314 0.00643726 -0.298851 4.60809 -14.9215 -0.30153 -2.99514 32.0527 2.72552 -0.0 0.0 0.0 -0.0 0.0 0.0 3.08417e-14 6.16269e-14 -1.55155e-13 50.7317 40.4358 30.8343 -28.409 -36.9501 78.5831 -0.534417 20.2787 2.98074 -1.05093e-10 -4.50787e-09 5.78174e-10 -1.77962e-10 -7.61992e-09 9.88643e-10 -1.0509e-10 -4.50787e-09 5.78164e-10 7.73091 5.47488 0.417314 -1.05093e-10 -4.50787e-09 5.78168e-10 2.90554 0.965183 0.102902 -1.05091e-10 -4.50787e-09 5.7817e-10 10.2786 0.731801 0.0259123 -1.05098e-10 -4.50787e-09 5.78178e-10 2.22167 -0.733487 -0.20892 3.10166e-14 6.16208e-14 -1.55369e-13 -51.0247 38.6824 -34.2858 27.9079 -30.1022 -67.4703 0.762576 24.0394 -3.59294 2.00417e-10 -2.55677e-09 -2.52335e-11 3.49813e-10 -4.34127e-09 -3.96301e-11 2.00413e-10 -2.55677e-09 -2.52172e-11 -7.73091 5.47488 -0.417314 2.0042e-10 -2.55677e-09 -2.5232e-11 -2.90554 0.965183 -0.102902 2.00411e-10 -2.55677e-09 -2.52295e-11 -10.2786 0.731801 -0.0259123 2.00423e-10 -2.55677e-09 -2.52401e-11 -2.22167 -0.733487 0.20892 -2.03217e-16 0.0 -3.88251e-19 1.58152 -25.8242 3.45838 -0.453879 44.4253 0.571699 1.57353 21.1513 -7.03062 2.03217e-16 0.0 3.88251e-19 -4.26495 -23.0682 -1.84129 0.447819 43.273 -0.614161 0.0500595 26.9609 0.846704
10.6002 85.5761 50.0632 177.385 3.8978 -156.989 -5.48153 1.78863 -1.67495 1.65497 0.268038 -0.368537 4.65554 -14.207 -0.618403 -3.51541 34.3598 3.27658 -0.0 0.0 0.0 -0.0 0.0 0.0 -3.12292e-14 2.92762e-13 -8.52852e-14 50.8354 40.1691 29.701 -28.3581 -37.7261 79.9184 -0.379292 17.3327 2.51343 -2.17411e-09 -2.09284e-08 1.21688e-09 -3.74071e-09 -3.60258e-08 2.12068e-09 -2.17411e-09 -2.09284e-08 1.21687e-09 7.73091 5.47488 0.417314 -2.17411e-09 -2.09284e-08 1.21687e-09 2.90554 0.965183 0.102902 -2.17411e-09 -2.09284e-08 1.21687e-09 10.2786 0.731801 0.0259123 -2.17412e-09 -2.09284e-08 1.21688e-09 2.22167 -0.733487 -0.20892 -3.10518e-14 2.92759e-13 -8.54883e-14 -50.3589 40.4421 -34.6105 28.0089 -30.6625 -68.3141 0.701638 23.1165 -3.43863 2.8573e-09 -1.28491e-08 -5.71638e-10 4.92457e-09 -2.22688e-08 -1.03044e-09 2.8573e-09 -1.28491e-08 -5.71624e-10 -7.73091 5.47488 -0.417314 2.8573e-09 -1.28491e-08 -5.71635e-10 -2.90554 0.965183 -0.102902 2.85729e-09 -1.28491e-08 -5.71633e-10 -10.2786 0.731801 -0.0259123 2.85731e-09 -1.28491e-08 -5.71645e-10 -2.22167 -0.733487 0.20892 -2.03217e-16 0.0 -3.88251e-19 1.11445 -24.023 3.89249 -0.411624 42.6376 0.474557 2.18876 27.4156 -6.63552 2.03217e-16 0.0 3.88251e-19 -4.78516 -21.8094 -2.78141 0.421689 42.3611 -0.616625 0.782731 29.9958 -1.02689
10.5604 87.3723 47.9467 177.053 3.5594 -157.234 -5.56722 0.50605 -1.88605 1.578 0.511502 -0.409505 4.67366 -13.5735 -0.892325 -3.90822 36.1593 3.72135 -0.0 0.0 0.0 -0.0 0.0 0.0 -6.98541e-14 4.19834e-13 -3.05134e-14 50.9949 40.0146 28.4524 -28.2855 -38.4821 81.2425 -0.269282 14.6131 2.09993 -3.49026e-09 -3.1333e-08 1.73753e-09 -6.00733e-09 -5.40298e-08 3.03812e-09 -3.49026e-09 -3.1333e-08 1.73752e-09 7.73091 5.47488 0.417314 -3.49026e-09 -3.1333e-08 1.73753e-09 2.90554 0.965183 0.102902 -3.49026e-09 -3.1333e-08 1.73753e-09 10.2786 0.731801 0.0259123 -3.49026e-09 -3.1333e-08 1.73754e-09 2.22167 -0.733487 -0.20892 -6.96973e-14 4.19834e-13 -3.07122e-14 -49.8516 41.9157 -34.8147 28.0862 -31.153 -69.0926 0.666776 22.5438 -3.34452 4.62312e-09 -1.97047e-08 -9.49625e-10 7.96499e-09 -3.42084e-08 -1.71547e-09 4.62311e-09 -1.97047e-08 -9.49612e-10 -7.73091 5.47488 -0.417314 4.62312e-09 -1.97047e-08 -9.49621e-10 -2.90554 0.965183 -0.102902 4.62311e-09 -1.97047e-08 -9.4962e-10 -10.2786 0.731801 -0.0259123 4.62313e-09 -1.97047e-08 -9.49631e-10 -2.22167 -0.733487 0.20892 -2.03217e-16 0.0 -3.88251e-19 0.831101 -22.7641 4.23857 -0.393559 41.5814 0.409408 2.62992 32.6111 -6.33459 2.03217e-16 0.0 3.88251e-19 -5.12745 -21.1719 -3.39793 0.416471 42.3051 -0.632769 1.42618 32.2804 -2.38384
10.5417 89.1224 45.9774 176.827 3.2414 -157.327 -5.5079 -0.68829 -1.96793 1.4515 0.746175 -0.411352 4.64913 -13.0242 -1.11966 -4.0733 37.3306 4.00236 -0.0 0.0 0.0 -0.0 0.0 0.0 -7.49353e-14 3.97295e-13 5.45454e-15 51.2423 39.9799 27.0382 -28.1954 -39.2935 82.6275 -0.18076 11.9532 1.70739 -3.80018e-09 -3.3874e-08 2.22136e-09 -6.54168e-09 -5.8434e-08 3.8769e-09 -3.80018e-09 -3.3874e-08 2.22135e-09 7.73091 5.47488 0.417314 -3.80018e-09 -3.3874e-08 2.22136e-09 2.90554 0.965183 0.102902 -3.80018e-09 -3.3874e-08 2.22136e-09 10.2786 0.731801 0.0259123 -3.80019e-09 -3.3874e-08 2.22136e-09 2.22167 -0.733487 -0.20892 -7.48396e-14 3.97298e-13 5.25148e-15 -49.576 43.0244 -34.8263 28.148 -31.5954 -69.8226 0.661702 22.4467 -3.32894 5.2592e-09 -2.22854e-08 -1.12733e-09 9.06012e-09 -3.86934e-08 -2.03624e-09 5.2592e-09 -2.22854e-08 -1.12732e-09 -7.73091 5.47488 -0.417314 5.2592e-09 -2.22853e-08 -1.12733e-09 -2.90554 0.965183 -0.102902 5.25919e-09 -2.22854e-08 -1.12733e-09 -10.2786 0.731801 -0.0259123 5.25921e-09 -2.22854e-08 -1.12734e-09 -2.22167 -0.733487 0.20892 -2.03217e-16 0.0 -3.88251e-19 0.810631 -22.243 4.50788 -0.399866 41.465 0.376259 2.97713 36.5956 -6.199 2.03217e-16 0.0 3.88251e-19 -5.30273 -21.378 -3.63571 0.439191 43.371 -0.667531 1.73771 33.5493 -2.9707
10.5532 90.801 44.145 176.739 2.9486 -157.351 -5.34627 -1.79399 -1.9646 1.277 0.946926 -0.386459 4.59916 -12.5496 -1.31666 -4.07345 38.0603 4.17192 -0.0 0.0 0.0 -0.0 0.0 0.0 -6.12331e-14 2.85253e-13 3.30883e-14 51.6337 39.9572 25.4288 -28.0738 -40.1426 84.0868 -0.106511 9.40993 1.33608 -3.51655e-09 -3.19969e-08 2.73027e-09 -6.05366e-09 -5.51925e-08 4.74952e-09 -3.51654e-09 -3.19969e-08 2.73027e-09 7.73091 5.47488 0.417314 -3.51654e-09 -3.1997e-08 2.73027e-09 2.90554 0.965183 0.102902 -3.51654e-09 -3.19969e-08 2.73027e-09 10.2786 0.731801 0.0259123 -3.51655e-09 -3.19969e-08 2.73027e-09 2.22167 -0.733487 -0.20892 -6.12317e-14 2.85259e-13 3.2874e-14 -49.4434 43.9681 -34.6766 28.2015 -31.9959 -70.4566 0.675843 22.6721 -3.36611 5.25109e-09 -2.25299e-08 -1.19915e-09 9.04582e-09 -3.9103e-08 -2.1638e-09 5.25108e-09 -2.25299e-08 -1.19914e-09 -7.73091 5.47488 -0.417314 5.25109e-09 -2.25298e-08 -1.19915e-09 -2.90554 0.965183 -0.102902 5.25108e-09 -2.25299e-08 -1.19915e-09 -10.2786 0.731801 -0.0259123 5.25109e-09 -2.25299e-08 -1.19916e-09 -2.22167 -0.733487 0.20892 -2.03217e-16 0.0 -3.88251e-19 1.00986 -22.3567 4.79297 -0.421032 42.1291 0.366408 3.39669 39.8439 -6.3651 2.03217e-16 0.0 3.88251e-19 -5.4126 -22.3142 -3.64361 0.490082 45.3903 -0.724899 1.66378 34.1454 -2.77433
10.5949 92.3941 42.4271 176.778 2.6659 -157.41 -5.09892 -2.63488 -1.90512 1.09859 1.11159 -0.348933 4.53159 -12.1503 -1.48167 -3.99858 38.4864 4.26278 -0.0 0.0 0.0 -0.0 0.0 0.0 -4.0397e-14 1.41108e-13 5.28748e-14 52.0791 39.9944 23.7371 -27.9268 -40.887 85.4437 -0.0604979 7.31912 1.03423 -2.8999e-09 -2.72752e-08 3.03509e-09 -4.99217e-09 -4.70354e-08 5.26573e-09 -2.89989e-09 -2.72752e-08 3.03509e-09 7.73091 5.47488 0.417314 -2.8999e-09 -2.72753e-08 3.03509e-09 2.90554 0.965183 0.102902 -2.89989e-09 -2.72753e-08 3.03509e-09 10.2786 0.731801 0.0259123 -2.8999e-09 -2.72753e-08 3.03509e-09 2.22167 -0.733487 -0.20892 -4.04898e-14 1.41116e-13 5.26445e-14 -49.4168 44.7769 -34.4151 28.2419 -32.3234 -70.9699 0.699879 23.0534 -3.42911 4.77163e-09 -2.08702e-08 -1.16597e-09 8.21982e-09 -3.62026e-08 -2.10147e-09 4.77163e-09 -2.08702e-08 -1.16596e-09 -7.73091 5.47488 -0.417314 4.77163e-09 -2.08702e-08 -1.16598e-09 -2.90554 0.965183 -0.102902 4.77162e-09 -2.08702e-08 -1.16597e-09 -10.2786 0.731801 -0.0259123 4.77164e-09 -2.08702e-08 -1.16598e-09 -2.22167 -0.733487 0.20892 -2.03217e-16 0.0 -3.88251e-19 1.33664 -22.7411 5.01468 -0.449433 43.2249 0.37586 3.73364 42.3038 -6.52318 2.03217e-16 0.0 3.88251e-19 -5.42992 -23.5725 -3.46104 0.563346 47.8907 -0.799209 1.38064 34.4583 -2.16975
10.6652 93.9062 40.7841 176.932 2.3943 -157.582 -4.78619 -3.03466 -1.8183 0.960601 1.23798 -0.312887 4.45444 -11.8267 -1.61295 -3.94536 38.7461 4.3124 -0.0 0.0 0.0 -0.0 0.0 0.0 -2.40765e-14 2.22596e-14 6.53008e-14 52.4989 40.1482 22.0711 -27.7896 -41.4042 86.4769 -0.0446049 6.01665 0.848738 -2.21079e-09 -2.12823e-08 2.90663e-09 -3.80607e-09 -3.66922e-08 5.03528e-09 -2.21078e-09 -2.12823e-08 2.90663e-09 7.73091 5.47488 0.417314 -2.21079e-09 -2.12823e-08 2.90663e-09 2.90554 0.965183 0.102902 -2.21078e-09 -2.12823e-08 2.90663e-09 10.2786 0.731801 0.0259123 -2.21079e-09 -2.12823e-08 2.90663e-09 2.22167 -0.733487 -0.20892 -2.42298e-14 2.22676e-14 6.50523e-14 -49.4536 45.4803 -34.0975 28.2654 -32.5465 -71.3356 0.723865 23.4238 -3.49072 3.99369e-09 -1.77382e-08 -1.0287e-09 6.87985e-09 -3.07576e-08 -1.85255e-09 3.99369e-09 -1.77382e-08 -1.02868e-09 -7.73091 5.47488 -0.417314 3.99369e-09 -1.77382e-08 -1.0287e-09 -2.90554 0.965183 -0.102902 3.99368e-09 -1.77382e-08 -1.02869e-09 -10.2786 0.731801 -0.0259123 3.9937e-09 -1.77382e-08 -1.0287e-09 -2.22167 -0.733487 0.20892 -2.03217e-16 0.0 -3.88251e-19 1.68942 -23.033 5.09025 -0.478389 44.4037 0.401215 3.75072 43.9279 -6.3133 2.03217e-16 0.0 3.88251e-19 -5.32584 -24.7441 -3.12497 0.64973 50.3999 -0.881927 1.08672 34.8769 -1.545
10.7568 95.3478 39.1774 177.177 2.1389 -157.928 -4.33727 -2.87885 -1.68485 0.871695 1.31908 -0.277587 4.3631 -11.5994 -1.69729 -3.93388 38.7544 4.30347 -0.0 0.0 0.0 -0.0 0.0 0.0 -1.3302e-14 -8.23745e-14 6.78989e-14 52.907 40.4906 20.3892 -27.6947 -41.7028 87.1172 -0.0474429 5.84981 0.825927 -1.21927e-09 -1.13899e-08 1.94313e-09 -2.09975e-09 -1.96292e-08 3.36369e-09 -1.21926e-09 -1.13899e-08 1.94313e-09 7.73091 5.47488 0.417314 -1.21927e-09 -1.13899e-08 1.94313e-09 2.90554 0.965183 0.102902 -1.21926e-09 -1.13899e-08 1.94313e-09 10.2786 0.731801 0.0259123 -1.21928e-09 -1.13899e-08 1.94313e-09 2.22167 -0.733487 -0.20892 -1.34681e-14 -8.23691e-14 6.76279e-14 -49.5802 46.0566 -33.7251 28.2745 -32.6572 -71.5323 0.750599 23.8284 -3.55839 2.50138e-09 -1.13229e-08 -6.71238e-10 4.30979e-09 -1.96292e-08 -1.20844e-09 2.50138e-09 -1.13229e-08 -6.71224e-10 -7.73091 5.47488 -0.417314 2.50139e-09 -1.13229e-08 -6.71239e-10 -2.90554 0.965183 -0.102902 2.50137e-09 -1.13229e-08 -6.71233e-10 -10.2786 0.731801 -0.0259123 2.50139e-09 -1.13229e-08 -6.71237e-10 -2.22167 -0.733487 0.20892 -2.03217e-16 0.0 -3.88251e-19 2.12404 -23.1946 4.99101 -0.510367 45.7478 0.454436 3.19453 44.303 -5.41985 2.03217e-16 0.0 3.88251e-19 -5.02782 -25.825 -2.58705 0.755087 53.0133 -0.978337 0.781498 35.5004 -0.904486
